<?xml version="1.0" encoding="utf-8"?>
<!-- Generator: Adobe Illustrator 21.0.2, SVG Export Plug-In . SVG Version: 6.00 Build 0)  -->
<svg version="1.1" id="Слой_1" xmlns="http://www.w3.org/2000/svg" xmlns:xlink="http://www.w3.org/1999/xlink" x="0px" y="0px"
	 viewBox="0 0 46 46" style="enable-background:new 0 0 46 46;" xml:space="preserve">
<style type="text/css">
	.st0{fill:#292A2A;}
</style>
<title>add_colol</title>
<path class="st0" d="M23,46c12.7,0,23-10.3,23-23S35.7,0,23,0S0,10.3,0,23S10.3,46,23,46z M23,1.8c11.7,0,21.2,9.5,21.2,21.2
	S34.7,44.2,23,44.2S1.8,34.7,1.8,23c0,0,0,0,0,0C1.9,11.3,11.3,1.9,23,1.8z"/>
<path class="st0" d="M12.6,24.2h9.2v9.2c0,0.5,0.4,0.9,0.9,0.9s0.9-0.4,0.9-0.9v-9.2h9.8c0.5,0,0.9-0.4,0.9-0.9s-0.4-0.9-0.9-0.9
	h-9.8v-9.8c0-0.5-0.4-0.9-0.9-0.9s-0.9,0.4-0.9,0.9l0,0v9.8h-9.2c-0.5,0-0.9,0.4-0.9,0.9S12.1,24.2,12.6,24.2L12.6,24.2L12.6,24.2z"
	/>
</svg>
