<?xml version="1.0" encoding="utf-8"?>
<!-- Generator: Adobe Illustrator 21.0.2, SVG Export Plug-In . SVG Version: 6.00 Build 0)  -->
<svg version="1.1" id="Слой_1" xmlns="http://www.w3.org/2000/svg" xmlns:xlink="http://www.w3.org/1999/xlink" x="0px" y="0px"
	 viewBox="0 0 32.9 46" style="enable-background:new 0 0 32.9 46;" xml:space="preserve">
<style type="text/css">
	.st0{fill:#292A2A;}
</style>
<title>catalog_colol</title>
<path class="st0" d="M17.3,0.4c-0.3-0.4-1-0.5-1.4-0.2c-0.1,0.1-0.1,0.1-0.2,0.2L2.1,22.1l0,0c-2.8,4.8-2.8,10.8,0.1,15.5
	c4.5,7.9,14.5,10.7,22.4,6.2c2.6-1.5,4.8-3.6,6.2-6.2c2.8-4.8,2.9-10.8,0.1-15.6L17.3,0.4z M29.2,36.7c-3.9,7-12.8,9.5-19.8,5.5
	C7,41,5.1,39.1,3.8,36.7c-2.5-4.2-2.5-9.4-0.1-13.7L16.5,2.6l12.8,20.4C31.7,27.3,31.7,32.5,29.2,36.7z"/>
<path class="st0" d="M26.2,29.3c-0.5,0-0.9,0.4-0.9,0.9c0,4.2-3.4,7.5-7.5,7.5l0,0c-0.5,0-0.9,0.4-0.9,0.9c0,0.5,0.4,0.9,0.9,0.9
	l0,0c5.2,0,9.4-4.2,9.4-9.4l0,0C27.1,29.7,26.7,29.3,26.2,29.3C26.2,29.3,26.2,29.3,26.2,29.3z"/>
</svg>
