<?xml version="1.0" encoding="utf-8"?>
<!-- Generator: Adobe Illustrator 21.0.2, SVG Export Plug-In . SVG Version: 6.00 Build 0)  -->
<svg version="1.1" id="wind_app" xmlns="http://www.w3.org/2000/svg" xmlns:xlink="http://www.w3.org/1999/xlink" x="0px" y="0px"
	 viewBox="0 0 2042.4 1072" style="enable-background:new 0 0 2042.4 1072;" xml:space="preserve">
<style type="text/css">
	.st0{fill:#210932;}
	.st1{fill:#2E153F;}
	.st2{fill:#FD5A57;}
	.st3{fill:#9B2927;}
	.st4{fill:#FDBD3C;}
	.st5{fill:#8B6821;}
	.st6{fill:#D0D0D0;}
	.st7{fill:#7E7E7E;}
	.st8{enable-background:new    ;}
	.st9{fill:#4A3657;}
	.st10{fill:#FFFFFF;}
	.st11{opacity:0.1;}
	.st12{fill:none;stroke:#FFFFFF;stroke-width:5;}
	.st13{opacity:0.3;}
	.st14{fill:#1ABC9C;}
	.st15{fill:#2ECC71;}
	.st16{fill:#3498DB;}
	.st17{fill:#9B59B6;}
	.st18{fill:#34495E;}
	.st19{fill:#16A085;}
	.st20{fill:#27AE60;}
	.st21{fill:#2980B9;}
	.st22{fill:#8E44AD;}
	.st23{fill:#2C3E50;}
	.st24{fill:#F1C40F;}
	.st25{fill:#E67E22;}
	.st26{fill:#E74C3C;}
	.st27{fill:#ECF0F1;}
	.st28{fill:#95A5A6;}
	.st29{fill:#FD31B0;}
	.st30{fill:#5E1B52;}
</style>
<title>colol_app_w</title>
<g>
	<path class="st0" d="M2015.7,0H26.7C12,0,0,12,0,26.7V1072h2042.4V26.7C2042.4,12,2030.4,0,2015.7,0z"/>
	<g id="Группа_3">
		<path class="st1" d="M1780.3,204.8c0.1-11.1-8.8-20.3-19.9-20.4H80.7c-11.1,0.1-20.1,9.3-19.9,20.4V1072h1719.6L1780.3,204.8
			L1780.3,204.8z"/>
		<g id="Эллипс_1">
			<path class="st2" d="M76.2,100.6c-13.5,0-24.4-11-24.4-24.4s11-24.4,24.4-24.4c13.5,0,24.4,10.9,24.4,24.4S89.7,100.6,76.2,100.6
				z"/>
			<path class="st3" d="M76.2,53.8c12.4,0,22.4,10,22.4,22.4s-10,22.4-22.4,22.4s-22.4-10-22.4-22.4C53.8,63.9,63.8,53.8,76.2,53.8
				 M76.2,49.8c-14.6,0-26.4,11.8-26.4,26.4s11.8,26.4,26.4,26.4s26.4-11.8,26.4-26.4S90.8,49.8,76.2,49.8L76.2,49.8L76.2,49.8z"/>
		</g>
		<g id="Эллипс_1_копия">
			<path class="st4" d="M155.9,100.6c-13.5,0-24.4-10.9-24.4-24.4s10.9-24.4,24.4-24.4s24.4,10.9,24.4,24.4l0,0
				C180.3,89.7,169.4,100.6,155.9,100.6z"/>
			<path class="st5" d="M155.9,53.8c12.4,0,22.4,10,22.4,22.4s-10,22.4-22.4,22.4s-22.4-10-22.4-22.4l0,0
				C133.5,63.9,143.6,53.8,155.9,53.8 M155.9,49.8c-14.6,0-26.4,11.8-26.4,26.4s11.8,26.4,26.4,26.4c14.6,0,26.4-11.8,26.4-26.4l0,0
				C182.3,61.6,170.5,49.8,155.9,49.8z"/>
		</g>
		<g id="Эллипс_1_копия_2">
			<path class="st6" d="M235.6,100.6c-13.5,0-24.4-10.9-24.4-24.4s10.9-24.4,24.4-24.4S260,62.7,260,76.2l0,0
				C260,89.7,249.1,100.6,235.6,100.6z"/>
			<path class="st7" d="M235.6,53.8c12.4,0,22.4,10,22.4,22.4s-10,22.4-22.4,22.4s-22.4-10-22.4-22.4l0,0
				C213.3,63.9,223.3,53.8,235.6,53.8 M235.6,49.8c-14.6,0-26.4,11.8-26.4,26.4s11.8,26.4,26.4,26.4S262,90.8,262,76.2l0,0
				C262,61.6,250.2,49.8,235.6,49.8z"/>
		</g>
		<g>
			<g class="st8">
				<path class="st9" d="M1643.4,113.7l13.5-35.1h5l14.4,35.1h-5.3l-4.1-10.6h-14.7l-3.9,10.6H1643.4z M1653.6,99.3h11.9l-3.7-9.7
					c-1.1-3-1.9-5.4-2.5-7.3c-0.4,2.3-1.1,4.5-1.9,6.7L1653.6,99.3z"/>
				<path class="st9" d="M1709.1,113.7V78.6h13.2c2.7,0,4.8,0.4,6.5,1.1c1.6,0.7,2.9,1.8,3.8,3.3c0.9,1.5,1.4,3,1.4,4.6
					c0,1.5-0.4,2.9-1.2,4.2c-0.8,1.3-2,2.4-3.7,3.2c2.1,0.6,3.8,1.7,4.9,3.2c1.1,1.5,1.7,3.3,1.7,5.3c0,1.6-0.3,3.2-1,4.6
					c-0.7,1.4-1.6,2.5-2.6,3.3c-1,0.8-2.3,1.3-3.8,1.7c-1.5,0.4-3.4,0.6-5.7,0.6H1709.1z M1713.8,93.3h7.6c2.1,0,3.5-0.1,4.4-0.4
					c1.2-0.4,2.1-0.9,2.7-1.8c0.6-0.8,0.9-1.8,0.9-3.1c0-1.2-0.3-2.2-0.8-3.1c-0.6-0.9-1.4-1.5-2.4-1.8c-1-0.3-2.8-0.5-5.3-0.5h-7
					V93.3z M1713.8,109.6h8.8c1.5,0,2.6-0.1,3.2-0.2c1.1-0.2,2-0.5,2.7-1c0.7-0.4,1.3-1.1,1.8-2c0.5-0.9,0.7-1.8,0.7-3
					c0-1.3-0.3-2.4-1-3.4c-0.7-1-1.6-1.6-2.8-2c-1.2-0.4-2.9-0.6-5.1-0.6h-8.1V109.6z"/>
				<path class="st9" d="M1769.9,96.6c0-5.8,1.6-10.4,4.7-13.7c3.1-3.3,7.2-5,12.1-5c3.2,0,6.2,0.8,8.8,2.3c2.6,1.6,4.6,3.7,6,6.5
					c1.4,2.8,2.1,5.9,2.1,9.4c0,3.6-0.7,6.8-2.2,9.6c-1.4,2.8-3.5,4.9-6.1,6.4c-2.6,1.4-5.5,2.2-8.5,2.2c-3.3,0-6.3-0.8-8.9-2.4
					c-2.6-1.6-4.6-3.8-5.9-6.5C1770.6,102.6,1769.9,99.7,1769.9,96.6z M1774.7,96.7c0,4.2,1.1,7.6,3.4,10c2.3,2.4,5.1,3.7,8.6,3.7
					c3.5,0,6.4-1.2,8.6-3.7c2.3-2.5,3.4-6,3.4-10.5c0-2.9-0.5-5.4-1.5-7.5c-1-2.1-2.4-3.8-4.2-5c-1.9-1.2-4-1.8-6.3-1.8
					c-3.3,0-6.1,1.1-8.5,3.4C1775.9,87.6,1774.7,91.4,1774.7,96.7z"/>
				<path class="st9" d="M1861.8,78.6h4.7v20.3c0,3.5-0.4,6.3-1.2,8.4c-0.8,2.1-2.2,3.8-4.3,5.1c-2.1,1.3-4.8,2-8.2,2
					c-3.3,0-6-0.6-8.1-1.7c-2.1-1.1-3.6-2.8-4.5-4.9c-0.9-2.2-1.3-5.1-1.3-8.8V78.6h4.7v20.3c0,3.1,0.3,5.3,0.9,6.7
					c0.6,1.4,1.5,2.6,2.9,3.3c1.4,0.8,3.1,1.2,5.1,1.2c3.4,0,5.9-0.8,7.3-2.3c1.5-1.6,2.2-4.5,2.2-8.9V78.6z"/>
			</g>
			<g class="st8">
				<path class="st9" d="M1913.2,113.7v-31h-11.6v-4.1h27.9v4.1h-11.6v31H1913.2z"/>
			</g>
		</g>
		<circle id="Эллипс_2" class="st10" cx="1910.9" cy="440.4" r="71.7"/>
		<g id="Группа_1" class="st11">
			<circle id="Эллипс_2_копия" class="st12" cx="1910.9" cy="612.7" r="71.7"/>
			<circle id="Эллипс_2_копия_2" class="st12" cx="1910.9" cy="785.1" r="71.7"/>
			<circle id="Эллипс_2_копия_3" class="st12" cx="1910.9" cy="957.4" r="71.7"/>
		</g>
		<g id="Группа_2" class="st13">
			<g>
				<path class="st10" d="M1889,637.8v-46.3h9.2l11,32.8c1,3.1,1.8,5.3,2.2,6.8c0.5-1.7,1.3-4.2,2.5-7.4l11.1-32.2h8.2v46.3h-5.9
					v-38.7l-13.4,38.8h-5.5l-13.4-39.4v39.4L1889,637.8z"/>
			</g>
			<g>
				<path class="st10" d="M1892.1,794.3l5.8-0.5c0.2,2,0.8,4,1.9,5.7c1.2,1.6,2.8,2.9,4.7,3.6c2.2,0.9,4.7,1.4,7.1,1.4
					c2.1,0.1,4.2-0.3,6.2-1c1.6-0.5,3-1.5,4-2.9c0.9-1.2,1.3-2.6,1.3-4s-0.4-2.7-1.3-3.8c-1.1-1.3-2.6-2.2-4.2-2.7
					c-2.7-0.9-5.5-1.7-8.2-2.3c-3.1-0.6-6.1-1.6-8.9-2.9c-2-1-3.7-2.5-4.9-4.3c-1.1-1.7-1.7-3.7-1.6-5.8c0-2.3,0.7-4.6,2-6.5
					c1.4-2.1,3.4-3.7,5.8-4.6c2.7-1.1,5.6-1.6,8.5-1.6c3.1-0.1,6.2,0.5,9.1,1.7c2.4,1,4.5,2.7,6,4.9c1.4,2.2,2.2,4.7,2.3,7.3
					l-5.9,0.4c-0.1-2.6-1.3-4.9-3.2-6.6c-1.8-1.5-4.5-2.2-8.1-2.2c-3.7,0-6.4,0.7-8.1,2c-1.6,1.1-2.5,3-2.5,4.9
					c0,1.6,0.6,3.1,1.8,4.1c1.2,1.1,4.3,2.2,9.2,3.3c3.5,0.7,6.9,1.7,10.2,3c2.4,1,4.5,2.6,6,4.7c1.3,1.9,2,4.2,1.9,6.6
					c0,2.5-0.7,4.9-2.1,7c-1.5,2.2-3.6,4-6.1,5.1c-2.8,1.2-5.8,1.9-8.9,1.8c-3.6,0.1-7.2-0.5-10.5-1.8c-2.7-1.1-5-3-6.7-5.5
					C1893,800.2,1892.1,797.3,1892.1,794.3z"/>
			</g>
			<g>
				<path class="st10" d="M1889,981.6v-46.3h9.2l11,32.8c1,3.1,1.8,5.3,2.2,6.8c0.5-1.7,1.3-4.2,2.5-7.4l11.1-32.2h8.2v46.3h-5.9
					v-38.8l-13.4,38.8h-5.5l-13.4-39.4v39.4L1889,981.6z"/>
			</g>
		</g>
	</g>
	<g id="Группа_4">
		<circle id="Эллипс_3" class="st14" cx="243.6" cy="384.1" r="140"/>
		<circle id="Эллипс_3_копия" class="st15" cx="573.4" cy="384.1" r="140"/>
		<circle id="Эллипс_3_копия_2" class="st16" cx="903.1" cy="384.1" r="140"/>
		<circle id="Эллипс_3_копия_3" class="st17" cx="1232.9" cy="384.1" r="140"/>
		<circle id="Эллипс_3_копия_4" class="st18" cx="1562.7" cy="384.1" r="140"/>
		<circle id="Эллипс_3_копия_5" class="st19" cx="243.6" cy="728.8" r="140"/>
		<circle id="Эллипс_3_копия_5-2" class="st20" cx="573.4" cy="728.8" r="140"/>
		<circle id="Эллипс_3_копия_5-3" class="st21" cx="903.1" cy="728.8" r="140"/>
		<circle id="Эллипс_3_копия_5-4" class="st22" cx="1232.9" cy="728.8" r="140"/>
		<circle id="Эллипс_3_копия_5-5" class="st23" cx="1562.7" cy="728.8" r="140"/>
		<path class="st24" d="M243.6,933.5c-76.7,0-139.2,61.8-140,138.5h280C382.7,995.3,320.3,933.5,243.6,933.5z"/>
		<path class="st25" d="M573.4,933.5c-76.7,0-139.2,61.8-140,138.5h280C712.5,995.3,650.1,933.5,573.4,933.5z"/>
		<path class="st26" d="M903.1,933.5c-76.7,0-139.2,61.8-140,138.5H1043C1042.2,995.3,979.8,933.6,903.1,933.5z"/>
		<path class="st27" d="M1232.9,933.5c-76.7,0-139.2,61.8-140,138.5h279.9C1372,995.3,1309.6,933.6,1232.9,933.5z"/>
		<path class="st28" d="M1562.6,933.5c-76.7,0-139.2,61.8-140,138.5h280C1701.8,995.3,1639.4,933.5,1562.6,933.5z"/>
	</g>
	<g>
		<path class="st0" d="M1897.3,468.4v-47.8h32.2v5.6h-25.9V441h22.4v5.6h-22.4v21.7L1897.3,468.4z"/>
	</g>
	<g>
		<path class="st10" d="M979.2,70.7c9.4,0,18.1,4.9,23,13.2c0.8,1.3,0.9,2.1,0.6,2.4c-0.4,0.4-0.8,0.8-1.3,0.9l-10.4,4.5
			c-1.5,0.6-2.3,0.8-2.6,0.4c-0.4-0.4-0.6-0.8-0.9-1.3c-3.6-4.5-10.2-5.5-14.7-1.9s-5.5,10.2-1.9,14.7c0.2,0.4,0.6,0.6,0.8,0.9
			c1.9,2.1,4.7,3.2,7.5,3c3.4,0.2,6.8-1.7,8.7-4.5c0.8-1.1,1.3-1.7,1.7-1.5c0.6,0.2,1.1,0.2,1.5,0.6l10.2,4.5
			c0.6,0.2,0.9,0.6,1.5,0.8c0.6,0.4,0.6,1.1-0.2,2.4c-4.7,8.7-13.7,14.1-23.5,14.1c-7.2,0.2-13.9-2.6-18.8-7.7
			c-5.1-4.9-7.9-11.7-7.7-18.8c-0.2-7.2,2.6-13.9,7.7-18.8C965.3,73.4,972.1,70.5,979.2,70.7z"/>
		<path class="st10" d="M1037.6,70.5c7.2-0.2,13.9,2.6,18.8,7.7c5.1,4.9,7.9,11.7,7.7,18.8c0.2,7.2-2.6,13.9-7.7,18.8
			c-10.4,10.4-27.3,10.4-37.6,0c-5.1-5.1-7.9-11.9-7.9-18.8c-0.2-7.2,2.6-13.9,7.7-18.8C1023.6,73.4,1030.4,70.5,1037.6,70.5z
			 M1037.6,86.7c-5.8,0-10.5,4.7-10.5,10.5s4.9,10.5,10.5,10.4c5.8,0,10.5-4.9,10.4-10.5c0-2.8-1.1-5.5-3-7.3
			C1043,87.7,1040.4,86.7,1037.6,86.7L1037.6,86.7z"/>
		<path class="st10" d="M1088.4,72.4c0.8-0.2,1.5,0.4,1.5,1.1c0,0.2,0,0.2,0,0.4v30.9c0,1.1,0.6,1.7,1.5,1.7h13.2
			c0.8-0.2,1.5,0.4,1.5,1.1c0,0.2,0,0.2,0,0.4v12.8c0.2,0.8-0.4,1.5-1.1,1.5c-0.2,0-0.2,0-0.4,0h-28.8c-0.8,0.2-1.5-0.4-1.7-1.1
			c0-0.2,0-0.2,0-0.4V73.9c-0.2-0.8,0.4-1.5,1.1-1.5c0.2,0,0.2,0,0.4,0H1088.4z"/>
		<path class="st10" d="M1139,70.5c7.2-0.2,13.9,2.6,18.8,7.7c5.1,4.9,7.9,11.7,7.7,18.8c0.2,7.2-2.6,13.9-7.7,18.8
			c-10.4,10.4-27.3,10.4-37.6,0c-5.1-5.1-7.9-11.9-7.9-18.8c-0.2-7.2,2.6-13.9,7.7-18.8C1125.1,73.4,1131.8,70.5,1139,70.5z
			 M1139,86.7c-5.8,0-10.5,4.7-10.5,10.5l0,0c0,5.8,4.9,10.5,10.5,10.4c5.8,0,10.5-4.9,10.4-10.5c0-2.8-1.1-5.5-3-7.3
			C1144.4,87.7,1141.8,86.7,1139,86.7L1139,86.7z"/>
		<path class="st10" d="M1189.8,72.4c0.8-0.2,1.5,0.4,1.5,1.1c0,0.2,0,0.2,0,0.4v30.9c0,1.1,0.6,1.7,1.5,1.7h13.2
			c0.8-0.2,1.5,0.4,1.5,1.1c0,0.2,0,0.2,0,0.4v12.8c0.2,0.8-0.4,1.5-1.1,1.5c-0.2,0-0.2,0-0.4,0h-29c-0.8,0.2-1.5-0.4-1.7-1.1
			c0-0.2,0-0.2,0-0.4V73.9c-0.2-0.8,0.4-1.5,1.1-1.5c0.2,0,0.2,0,0.4,0H1189.8z"/>
		<circle class="st29" cx="881.5" cy="96.3" r="49.5"/>
		<circle class="st30" cx="881.5" cy="96.3" r="35.9"/>
		<circle class="st10" cx="881.5" cy="96.3" r="19.8"/>
	</g>
</g>
</svg>
