<?xml version="1.0" encoding="utf-8"?>
<!-- Generator: Adobe Illustrator 21.0.2, SVG Export Plug-In . SVG Version: 6.00 Build 0)  -->
<svg version="1.1" id="Слой_1" xmlns="http://www.w3.org/2000/svg" xmlns:xlink="http://www.w3.org/1999/xlink" x="0px" y="0px"
	 viewBox="0 0 50 50" style="enable-background:new 0 0 50 50;" xml:space="preserve">
<style type="text/css">
	.st0{fill:#292A2A;}
</style>
<g>
	<path class="st0" d="M45.9,12.3h-8.2V4.1c0-1.7-1.4-3.1-3.1-3.1H4.1C2.4,1,1,2.4,1,4.1v30.5c0,1.7,1.4,3.1,3.1,3.1h8.2v8.2
		c0,1.7,1.4,3.1,3.1,3.1h30.5c1.7,0,3.1-1.4,3.1-3.1V15.4C49,13.7,47.6,12.3,45.9,12.3z M2.7,34.6V4.1c0-0.8,0.6-1.4,1.4-1.4h30.5
		c0.8,0,1.4,0.6,1.4,1.4v30.5c0,0.8-0.6,1.4-1.4,1.4H4.1C3.3,36,2.7,35.4,2.7,34.6z M47.3,45.9c0,0.8-0.6,1.4-1.4,1.4H15.4
		c-0.8,0-1.4-0.6-1.4-1.4v-8.2h20.6c1.7,0,3.1-1.4,3.1-3.1V14h8.2c0.8,0,1.4,0.6,1.4,1.4V45.9z"/>
</g>
</svg>
