<svg id="titles" xmlns="http://www.w3.org/2000/svg" viewBox="0 0 135.52 28.41"><defs><style>.cls-1{fill:#fff;}</style></defs><title>title</title><path class="cls-1" d="M16,12.7a14.1,14.1,0,0,1,12.2,7c.4.7.5,1.1.3,1.3a1.79,1.79,0,0,1-.7.5l-5.5,2.4c-.8.3-1.2.4-1.4.2a4.23,4.23,0,0,1-.5-.7,5.56,5.56,0,0,0-8.8,6.8c.1.2.3.3.4.5a5,5,0,0,0,4,1.6,5.35,5.35,0,0,0,4.6-2.4c.4-.6.7-.9.9-.8s.6.1.8.3l5.4,2.4c.3.1.5.3.8.4s.3.6-.1,1.3A14.28,14.28,0,0,1,15.93,41a13.35,13.35,0,0,1-10-4.1,13.35,13.35,0,0,1-4.1-10,13.35,13.35,0,0,1,4.1-10A13.45,13.45,0,0,1,16,12.7Z" transform="translate(-1.83 -12.6)"/><path class="cls-1" d="M47,12.6a13.35,13.35,0,0,1,10,4.1,13.35,13.35,0,0,1,4.1,10,13.35,13.35,0,0,1-4.1,10,14.2,14.2,0,0,1-24.2-10,13.35,13.35,0,0,1,4.1-10A14.56,14.56,0,0,1,47,12.6Zm0,8.6a5.59,5.59,0,0,0-5.6,5.6,5.55,5.55,0,1,0,9.5-4A5.13,5.13,0,0,0,47,21.2Z" transform="translate(-1.83 -12.6)"/><path class="cls-1" d="M74,13.6a.64.64,0,0,1,.8.6V30.8c0,.6.3.9.8.9h7a.64.64,0,0,1,.8.6v7a.64.64,0,0,1-.6.8H67.33a.78.78,0,0,1-.9-.6V14.4a.64.64,0,0,1,.6-.8h7Z" transform="translate(-1.83 -12.6)"/><path class="cls-1" d="M100.93,12.6a13.35,13.35,0,0,1,10,4.1,13.35,13.35,0,0,1,4.1,10,13.35,13.35,0,0,1-4.1,10,14.2,14.2,0,0,1-24.2-10,13.35,13.35,0,0,1,4.1-10A14.56,14.56,0,0,1,100.93,12.6Zm0,8.6a5.59,5.59,0,0,0-5.6,5.6h0a5.55,5.55,0,1,0,9.5-4,5.13,5.13,0,0,0-3.9-1.6Z" transform="translate(-1.83 -12.6)"/><path class="cls-1" d="M127.93,13.6a.64.64,0,0,1,.8.6V30.8c0,.6.3.9.8.9h7a.64.64,0,0,1,.8.6v7a.64.64,0,0,1-.6.8h-15.6a.78.78,0,0,1-.9-.6V14.4a.64.64,0,0,1,.6-.8h7.1Z" transform="translate(-1.83 -12.6)"/></svg>